{
	"asset":{
		"generator":"Khronos glTF Blender I/O v4.2.70",
		"version":"2.0"
	},
	"scene":0,
	"scenes":[
		{
			"name":"Scene",
			"nodes":[
				0
			]
		}
	],
	"nodes":[
		{
			"mesh":0,
			"name":"Torus",
			"rotation":[
				0.5,
				0.5,
				-0.5,
				0.5
			]
		}
	],
	"meshes":[
		{
			"name":"Torus",
			"primitives":[
				{
					"attributes":{
						"POSITION":0,
						"NORMAL":1,
						"TEXCOORD_0":2
					},
					"indices":3
				}
			]
		}
	],
	"accessors":[
		{
			"bufferView":0,
			"componentType":5126,
			"count":6440,
			"max":[
				1.25,
				1.0970371961593628,
				1.2367753982543945
			],
			"min":[
				-1.25,
				-1.0970371961593628,
				-1.2367753982543945
			],
			"type":"VEC3"
		},
		{
			"bufferView":1,
			"componentType":5126,
			"count":6440,
			"type":"VEC3"
		},
		{
			"bufferView":2,
			"componentType":5126,
			"count":6440,
			"type":"VEC2"
		},
		{
			"bufferView":3,
			"componentType":5123,
			"count":9660,
			"type":"SCALAR"
		}
	],
	"bufferViews":[
		{
			"buffer":0,
			"byteLength":77280,
			"byteOffset":0,
			"target":34962
		},
		{
			"buffer":0,
			"byteLength":77280,
			"byteOffset":77280,
			"target":34962
		},
		{
			"buffer":0,
			"byteLength":51520,
			"byteOffset":154560,
			"target":34962
		},
		{
			"buffer":0,
			"byteLength":19320,
			"byteOffset":206080,
			"target":34963
		}
	],
	"buffers":[
		{
			"byteLength":225400,
			"uri":"Sample3.bin"
		}
	]
}
